<svg xmlns="http://www.w3.org/2000/svg" xmlns:xlink="http://www.w3.org/1999/xlink" width="1366" zoomAndPan="magnify" viewBox="0 0 1024.5 576" height="768" preserveAspectRatio="xMidYMid meet" version="1.0"><defs><clipPath id="6d3ffcb5ea"><path d="M 0 347 L 159 347 L 159 575.859375 L 0 575.859375 Z M 0 347 " clip-rule="nonzero"/></clipPath><clipPath id="8fb390b7d6"><path d="M 865.5 0.28125 L 1024 0.28125 L 1024 230 L 865.5 230 Z M 865.5 0.28125 " clip-rule="nonzero"/></clipPath></defs><g clip-path="url(#6d3ffcb5ea)"><path fill="#ffde59" d="M 155.410156 538.175781 C 158.996094 541.792969 158.777344 547.589844 158.316406 552.667969 L 156.210938 575.972656 L 0 575.972656 L 0 349.738281 C 9.636719 347.078125 19.566406 345.753906 28.695312 349.3125 C 41.199219 354.195312 48.238281 372.953125 37.71875 381.285156 C 33.925781 384.292969 28.101562 386.167969 27.597656 390.980469 C 27.054688 396.203125 33.515625 399.242188 38.761719 399.414062 C 44.007812 399.585938 50 398.792969 53.824219 402.390625 C 58.824219 407.097656 56.234375 415.53125 52.371094 421.210938 C 48.507812 426.890625 43.425781 432.855469 44.4375 439.648438 C 45.714844 448.175781 55.964844 452.28125 64.578125 451.855469 C 73.195312 451.433594 81.65625 448.195312 90.222656 449.167969 C 98.785156 450.140625 107.621094 458.179688 104.753906 466.304688 C 99.917969 480.042969 72.832031 472.460938 68.679688 486.414062 C 66.054688 495.246094 76.914062 502.695312 86.121094 502.339844 C 95.328125 501.988281 103.984375 497.332031 113.195312 497.125 C 122.40625 496.917969 133.0625 504.851562 129.996094 513.535156 C 126.894531 522.285156 112.089844 525.363281 113.523438 534.539062 C 114.742188 542.320312 126.0625 542.519531 133.328125 539.480469 C 140.59375 536.4375 149.875 532.574219 155.410156 538.175781 Z M 155.410156 538.175781 " fill-opacity="1" fill-rule="nonzero"/></g><g clip-path="url(#8fb390b7d6)"><path fill="#ffde59" d="M 869.085938 38.097656 C 865.503906 34.476562 865.722656 28.679688 866.183594 23.605469 L 868.285156 0.300781 L 1024.5 0.300781 L 1024.5 226.535156 C 1014.859375 229.191406 1004.929688 230.515625 995.804688 226.960938 C 983.300781 222.078125 976.261719 203.320312 986.78125 194.984375 C 990.574219 191.980469 996.398438 190.105469 996.898438 185.289062 C 997.441406 180.070312 990.984375 177.027344 985.738281 176.855469 C 980.488281 176.683594 974.496094 177.480469 970.675781 173.878906 C 965.671875 169.171875 968.265625 160.738281 972.128906 155.058594 C 975.988281 149.382812 981.074219 143.417969 980.0625 136.625 C 978.78125 128.097656 968.535156 123.992188 959.917969 124.414062 C 951.304688 124.839844 942.84375 128.074219 934.277344 127.101562 C 925.710938 126.128906 916.875 118.089844 919.742188 109.964844 C 924.582031 96.230469 951.664062 103.808594 955.816406 89.855469 C 958.441406 81.027344 947.585938 73.574219 938.378906 73.929688 C 929.167969 74.285156 920.515625 78.941406 911.304688 79.144531 C 902.09375 79.351562 891.433594 71.417969 894.503906 62.738281 C 897.601562 53.984375 912.410156 50.90625 910.972656 41.730469 C 909.757812 33.953125 898.4375 33.75 891.171875 36.792969 C 883.90625 39.835938 874.621094 43.695312 869.085938 38.097656 Z M 869.085938 38.097656 " fill-opacity="1" fill-rule="nonzero"/></g></svg>